<?xml version="1.0" encoding="utf-8"?>
<!-- Generator: Adobe Illustrator 23.1.0, SVG Export Plug-In . SVG Version: 6.00 Build 0)  -->
<svg version="1.1" id="Layer_1" xmlns="http://www.w3.org/2000/svg" xmlns:xlink="http://www.w3.org/1999/xlink" x="0px" y="0px"
	 viewBox="0 0 114.71 92.05" style="enable-background:new 0 0 114.71 92.05;" xml:space="preserve">
<style type="text/css">
	.st0{fill:#FFF200;stroke:#000000;stroke-miterlimit:10;}
</style>
<polygon class="st0" points="56.85,22.82 68.88,1.18 79.47,25.93 100.7,13.2 87.97,34.43 112.72,34.02 91.08,46.04 112.72,58.06 
	87.97,57.65 89.7,78.88 79.47,66.15 84.84,89.99 55.76,73.37 26.29,90.91 35.24,66.15 14.01,78.88 26.74,57.65 1.99,58.06 
	23.63,46.04 1.99,34.02 26.74,34.43 14.01,13.2 35.24,25.93 44.83,1.18 "/>
<g>
	<g>
		<path d="M29.28,59.3c-0.15-1.89-0.23-3.47-0.31-5.33c-0.08-1.49-0.53-7.47-0.43-7.48c1.49-0.23,2.74-0.22,3.59-0.29
			c1.74-0.15,4.38-0.63,4.56,1.88c0.09,1.17-1.68,3.72-2.27,4.68c0.87-0.17,4.34,2.95,4.46,4.63c0.29,4.17-7.02,4.84-9.13,4.52
			C29.12,61.8,29.38,60.7,29.28,59.3z M33.62,56.33c-0.63,0.3-0.46,0.18-0.6,0.28c0.1,1.34,0.26,1.9,0.34,2.76
			c0.03,0.09,0,0.25,0.19,0.17c1.46-0.54,2.64-2.46,2.58-3.48C36.1,55.6,34.75,55.79,33.62,56.33z M32.26,49.34
			c-0.44,0.16-1.01,0.29-1.27,0.47c0,0,0.01,0.9,0.06,1.55c0,0.06,0.72-0.22,2.63-1.98C33.26,49.09,33.25,48.98,32.26,49.34z"/>
	</g>
	<g>
		<path d="M36.47,41.2c0.22-0.22,2.71-2.69,4.45-4.07c0.16-0.13,0.73,2.63,0.91,4.05c0.32,2.63,0.73,5.03,1.22,7.83l0.51,3.1
			c0.21,1.07,0.33,1.66,0.59,3.15c0.07,0.25,0.91,5.19,1.44,5.8c0.48,0.55-2.39,0.61-4.97,1.83c-0.8,0.38-1.32-3.87-1.32-3.87
			c-0.95-6.19-1.46-9.09-2.23-13.47l-0.11-0.57C36.96,44.98,36,41.66,36.47,41.2z"/>
	</g>
	<g>
		<path d="M54.91,38.88c-0.13-0.27-1.6,0.31-4.79,1.63c-0.94,0.39-0.58-0.01-1.17,0.5c0.31,1.6,0.56,2.13,0.65,2.08
			c0.86-0.43,2.19-0.78,3.69-1.54c1.39-0.7,1.66-1.44,2.09,0.52c0.7,3.03,1.51,5.66,0.27,5.4c-2.33-0.5-5.74,2.22-5.74,2.22
			c0.39,1.77,1.16,5.37,1.62,7.32c0.29,1.35,2.03,4.85,1.22,4.95c-1.15,0.14-4.85,2.03-5.2,0.41c-2.05-8.51-3.11-14.92-4.57-20.93
			c-0.9-3.72-2.28-6.48-1.99-6.63c2.11-1.06,5.74-2.41,8.01-3.56c1.8-0.91,4.1-2.03,4.1-2.03C53.49,31.24,55.04,39.15,54.91,38.88z"
			/>
	</g>
	<g>
		<path d="M70.07,38.74c-0.1-0.26-1.53,0.12-4.64,1.01c-0.92,0.26-0.55-0.07-1.14,0.34c0.16,1.51,0.34,2.03,0.43,1.99
			c0.85-0.31-0.79,0.58,0.69,0.03c1.36-0.5,1.69-1.16,1.92,0.7c0.39,2.87,0.93,5.39-0.22,5.02c-2.15-0.7-2.68,0.39-2.68,0.39
			c0.22,1.68,0.63,5.09,0.88,6.94c0.15,1.28,1.49,4.7,0.71,4.71c-1.09,0.01-4.73,1.37-4.92-0.16c-2.16-7.69-3.7-13.36-3.52-19.52
			c0.12-4-2.14-7.68-1.85-7.78c2.07-0.76,7.1-1.79,9.33-2.62c1.77-0.65,4.03-1.81,4.03-1.81C69.29,29.89,70.16,39,70.07,38.74z"/>
	</g>
	<path d="M86.18,54.34c0.06,1.01-0.97,3.07-1.82,3.38c-0.73,0.27-3.26-0.97-3.31-1.84c-0.06-1.05,1.51-2.94,2.38-3.26
		C84.3,52.29,86.13,53.42,86.18,54.34z M85.39,46.94c0.09,0.85,0.47,5.03-0.71,5.47c-1.15,0.43-1.45-0.74-1.64-2.65
		c-0.24-2.5-0.28-3.95-0.53-6.54c-0.13-1.45-0.41-3.21-0.15-3.3c0.89-0.33,1.71-0.63,2.34-0.86C85.08,38.92,85.18,44.79,85.39,46.94
		z"/>
	<path d="M82.17,48.52c0.06,0.97-0.93,2.95-1.75,3.25c-0.7,0.26-3.13-0.94-3.18-1.77c-0.06-1.01,1.45-2.83,2.29-3.13
		C80.36,46.55,82.12,47.64,82.17,48.52z M81.41,41.42c0.09,0.82,0.46,4.84-0.68,5.26c-1.11,0.41-1.4-0.71-1.58-2.54
		c-0.23-2.41-0.26-3.79-0.51-6.28c-0.13-1.4-0.39-3.08-0.14-3.17c0.86-0.32,1.64-0.6,2.25-0.83C81.11,33.71,81.21,39.35,81.41,41.42
		z"/>
	<path d="M78.09,53.38c0.1,1.67-1.61,5.09-3.02,5.61c-1.21,0.45-5.4-1.61-5.49-3.06c-0.1-1.74,2.51-4.88,3.95-5.41
		S78.01,51.87,78.09,53.38z M76.77,41.13c0.16,1.41,0.79,8.34-1.18,9.07c-1.91,0.71-2.41-1.22-2.72-4.39
		c-0.4-4.15-0.46-6.54-0.88-10.84c-0.22-2.41-0.68-5.31-0.24-5.48c1.48-0.55,2.83-1.04,3.88-1.43
		C76.26,27.83,76.43,37.56,76.77,41.13z"/>
</g>
</svg>
