<?xml version="1.0" encoding="utf-8"?>
<!-- Generator: Adobe Illustrator 23.1.0, SVG Export Plug-In . SVG Version: 6.00 Build 0)  -->
<svg version="1.1" id="Layer_1" xmlns="http://www.w3.org/2000/svg" xmlns:xlink="http://www.w3.org/1999/xlink" x="0px" y="0px"
	 viewBox="0 0 114.71 92.05" style="enable-background:new 0 0 114.71 92.05;" xml:space="preserve">
<style type="text/css">
	.st0{fill:#ED1C24;stroke:#000000;stroke-miterlimit:10;}
	.st1{fill:#FFFFFF;}
	.st2{font-family:'ComicSansMS';}
	.st3{font-size:27.4859px;}
	.st4{font-size:15.7575px;}
	.st5{font-size:28.9674px;}
	.st6{font-size:38.7954px;}
	.st7{font-size:15.7273px;}
</style>
<polygon class="st0" points="56.85,22.82 68.88,1.18 79.47,25.93 100.7,13.2 87.97,34.43 112.72,34.02 91.08,46.04 112.72,58.06 
	87.97,57.65 89.7,78.88 79.47,66.15 84.84,89.99 55.76,73.37 26.29,90.91 35.24,66.15 14.01,78.88 26.74,57.65 1.99,58.06 
	23.63,46.04 1.99,34.02 26.74,34.43 14.01,13.2 35.24,25.93 44.83,1.18 "/>
<g>
	<text transform="matrix(1.0661 0.1891 -0.1555 0.9878 28.2864 52.1197)" class="st1 st2 st3">P</text>
	<text transform="matrix(2.2952 0 0 1 33.2261 56.3604)" class="st1 st2 st4">O</text>
	<text transform="matrix(0.5125 -0.2046 0.3339 0.9426 61.7627 57.6028)" class="st1 st2 st5">W</text>
	<text transform="matrix(1.1131 -0.1216 0.0965 0.9953 77.3575 61.0007)" class="st1 st2 st6">!</text>
	<text transform="matrix(0.882 -0.1758 0.1742 0.9847 73.5886 41.8067)" class="st1 st2 st7">!</text>
</g>
</svg>
